<svg fill="currentColor" version="1.2" xmlns="http://www.w3.org/2000/svg" viewBox="2792.811815854793 764.6876619015535 1397.1881841452068 593.3123380984465"> <style>     </style> <g id="Page 1"> <g id="Group 1"> <g id="Group 3"> <path id="Object 5" fill-rule="evenodd" class="s0" d="m3909.34 906.26c39.77-14.14 66.06 6.2 66.06 6.2 0 0-26.65-7.21-47.8-1.72z"/> <path id="Object 6" fill-rule="evenodd" class="s1" d="m3909.34 906.26c39.77-14.14 66.06 6.2 66.06 6.2 0 0-26.65-7.21-47.8-1.72z"/> <path id="Object 7" fill-rule="evenodd" class="s2" d="m3928.73 924.94c45.3-6.82 46.38 7.25 46.38 7.25 0 0-9.35-4.12-30.49-2.04z"/> <path id="Object 8" fill-rule="evenodd" class="s1" d="m3928.73 924.94c45.3-6.82 46.38 7.25 46.38 7.25 0 0-9.35-4.12-30.49-2.04z"/> <path id="Object 9" fill-rule="evenodd" class="s2" d="m3898.94 1070.22c18.28-16.67 41.52-13.55 48.04-3.2 9.01 13.87 4.23 29.84-8.31 41.27 0 0 17.32-19.42 4.92-35.76-6.57-8.91-25.3-9.31-39.56 2.83-14.19 11.8-27.65 41.51 5.93 48.86-29.11 2.12-35.41-32.6-11.02-54z"/> <path id="Object 10" fill-rule="evenodd" class="s1" d="m3898.94 1070.22c18.28-16.67 41.52-13.55 48.04-3.2 9.01 13.87 4.23 29.84-8.31 41.27 0 0 17.32-19.42 4.92-35.76-6.57-8.91-25.3-9.31-39.56 2.83-14.19 11.8-27.65 41.51 5.93 48.86-29.11 2.12-35.41-32.6-11.02-54z"/> <path id="Object 11" fill-rule="evenodd" class="s2" d="m3994.16 1000.18c129.54-53.03 125.07 102.97-95.66 243.2 181.23-148.24 214.86-261.54 95.66-243.2z"/> <path id="Object 12" fill-rule="evenodd" class="s1" d="m3994.16 1000.18c129.54-53.03 125.07 102.97-95.66 243.2 181.23-148.24 214.86-261.54 95.66-243.2z"/> <path id="Object 13" fill-rule="evenodd" class="s2" d="m3805.29 1084.74c-128.51 50.18-50.5 102.85-50.5 102.85 0 0-47.5-50.55 50.5-102.85z"/> <path id="Object 14" fill-rule="evenodd" class="s1" d="m3805.29 1084.74c-128.51 50.18-50.5 102.85-50.5 102.85 0 0-47.5-50.55 50.5-102.85z"/> <path id="Object 15" fill-rule="evenodd" class="s2" d="m3919.3 1187.59c81.75-41.54 28.11-84.89 28.11-84.89 0 0 27.99 46.47-37.81 84.89z"/> <path id="Object 16" fill-rule="evenodd" class="s1" d="m3919.3 1187.59c81.75-41.54 28.11-84.89 28.11-84.89 0 0 27.99 46.47-37.81 84.89z"/> <path id="Object 17" fill-rule="evenodd" class="s2" d="m3803.5 1099.25c0 0 12.18-26.31 21.2-64.43 0 0 4.91 36.73-21.2 64.43z"/> <path id="Object 18" fill-rule="evenodd" class="s1" d="m3803.5 1099.25c0 0 12.18-26.31 21.2-64.43 0 0 4.91 36.73-21.2 64.43z"/> <path id="Object 19" fill-rule="evenodd" class="s2" d="m3780.1 1100.28c0 0-72.51-70.34 41.12-120.5 32.92-14.58 75.19-18.43 94.67 8.96 5.85 8.36 6.54 64.46-54.12 107.71-26.32-8.58-28.68-23.51-28.68-23.51 12.08 14.22 29.14 17.37 29.14 17.37 50.13-41.29 52.22-92.55 45.96-98.4-19.72-17.67-51.57-17.67-82.83-5.23-99.34 40.89-45.26 113.6-45.26 113.6z"/> <path id="Object 20" fill-rule="evenodd" class="s1" d="m3780.1 1100.28c0 0-72.51-70.34 41.12-120.5 32.92-14.58 75.19-18.43 94.67 8.96 5.85 8.36 6.54 64.46-54.12 107.71-26.32-8.58-28.68-23.51-28.68-23.51 12.08 14.22 29.14 17.37 29.14 17.37 50.13-41.29 52.22-92.55 45.96-98.4-19.72-17.67-51.57-17.67-82.83-5.23-99.34 40.89-45.26 113.6-45.26 113.6z"/> <path id="Object 21" fill-rule="evenodd" class="s2" d="m3827.84 1187.29h-12.41c0 0 28.36-49.24 72.34-58.51 0 0-39.88 15.51-59.93 58.51z"/> <path id="Object 22" fill-rule="evenodd" class="s1" d="m3827.84 1187.29h-12.41c0 0 28.36-49.24 72.34-58.51 0 0-39.88 15.51-59.93 58.51z"/> <path id="Object 23" fill-rule="evenodd" class="s2" d="m3970.58 945.82c0 0-6.64 8.63 0.3 26.33 6.58 17.3 24.3 35.28 24.3 35.28 0 0-20.43-30.12-24.6-61.61z"/> <path id="Object 24" fill-rule="evenodd" class="s1" d="m3970.58 945.82c0 0-6.64 8.63 0.3 26.33 6.58 17.3 24.3 35.28 24.3 35.28 0 0-20.43-30.12-24.6-61.61z"/> <path id="Object 25" fill-rule="evenodd" class="s2" d="m3841.36 924.67c0 0 1.78-30.09 43.02-40.16 56.73-14.2 80.62 9.67 80.62 9.67 0 0-32.49-10.38-75.45-2.06-12.54 2.71-30.56 11.77-37.17 29.73-0.57 1.74 16.71 8.3 16.71 8.3 0 0 14.9 65.99 55.38 89.79 17.39-6.88 29.47-27.37 29.47-27.37 0-0.3-2.39 22.46-28.78 32.55-49.15-25.63-65.14-90.06-65.14-90.06 0 0-17.31-5.94-18.66-10.39z"/> <path id="Object 26" fill-rule="evenodd" class="s1" d="m3841.36 924.67c0 0 1.78-30.09 43.02-40.16 56.73-14.2 80.62 9.67 80.62 9.67 0 0-32.49-10.38-75.45-2.06-12.54 2.71-30.56 11.77-37.17 29.73-0.57 1.74 16.71 8.3 16.71 8.3 0 0 14.9 65.99 55.38 89.79 17.39-6.88 29.47-27.37 29.47-27.37 0-0.3-2.39 22.46-28.78 32.55-49.15-25.63-65.14-90.06-65.14-90.06 0 0-17.31-5.94-18.66-10.39z"/> <path id="Object 27" fill-rule="evenodd" class="s2" d="m3858.66 1008.48c-92.86 24.27-56.16 63.4-56.16 63.4 0 0-20.4-30.82 56.16-63.4z"/> <path id="Object 28" fill-rule="evenodd" class="s1" d="m3858.66 1008.48c-92.86 24.27-56.16 63.4-56.16 63.4 0 0-20.4-30.82 56.16-63.4z"/> <path id="Object 29" fill-rule="evenodd" class="s3" d="m3128.17 1028.03c3.84-0.33 8.5-0.64 12.58-0.64 2.81 0 8.18 0.31 11.63 0.64v-1.12l-6.42-2.18c-2.08-0.63-2.32-2.48-2.32-12.9v-9.22h6.18c4.98 6.49 12.1 16.76 17.24 25.42 2-0.17 4-0.33 5.93-0.33 1.84 0 3.77 0.16 5.62 0.33v-1.12c-4.5-0.81-4.9-1.37-9.55-8.34l-11.07-16.53c7.38-1.19 13.16-5.05 13.16-13.16 0-8.01-6.9-12.32-17.48-12.32-5.7 0-10.27 0.63-14.44 0.63-4.33 0-8.09-0.32-11.06-0.63v1.11l6.73 2.24c1.77 0.57 2.01 1.13 2.01 8.65v29.04c0 6.17-0.33 6.5-2.57 7.22l-6.17 2.09zm88.69 0.94c15.97 0 25.52-12.58 25.52-28.45 0-14.61-9.48-24.95-24.23-24.95-16.19 0-26.22 11.23-26.22 27.19 0 13 8.26 26.21 24.93 26.21zm-337.19 136.31c0 12.48-0.65 13.12-5.19 14.58l-12.48 4.23v2.25c7.29-0.63 13.77-1.29 21.39-1.29 10.05 0 22.7 1.29 35.02 1.29 23.33 0 35.01-12.63 35.01-27.54 0-19.12-18.65-25.13-34.69-26.27v-0.33c15.24-1.45 29.82-9.4 29.82-22.85 0-19.44-17.5-27.07-34.84-27.07-9.24 0-21.57 1.29-28.04 1.29-6.49 0-14.75-0.63-23.67-1.29v2.28l13.61 4.53c3.57 1.14 4.06 2.28 4.06 17.51zm157.44 23.02c32.26 0 51.55-25.46 51.55-57.56 0-29.5-19.13-50.4-48.95-50.4-32.74 0-53 22.7-53 54.95 0 26.26 16.69 53.01 50.4 53.01zm357.09-1.96c6-0.64 12-1.3 18-1.3 6.47 0 12.8 0.66 19.12 1.3v-2.26l-13.94-5.03c2.27-9.08 4.87-18.64 9.24-26.91 6.81-0.16 13.45-0.32 20.26-0.32 6.8 0 13.77 0.16 20.58 0.32 2.28 4.88 7.47 20.11 9.4 26.91-4.85 1.94-11.82 4.06-15.88 5.03v2.26c7.3-0.64 14.42-1.3 21.72-1.3 8.59 0 17.02 0.66 25.61 1.3v-2.26l-13.61-4.71c-13.79-32.9-28.37-66.61-41.34-100.33h-3.57c-11.66 29.18-29.16 66.46-43.27 99.7-3.89 2.09-8.43 3.87-12.32 5.34zm125.32 0c7.78-0.63 17.19-1.29 25.45-1.29 5.68 0 16.54 0.66 23.51 1.29v-2.25l-12.97-4.39c-4.22-1.3-4.7-5.01-4.7-26.09v-18.65h12.48c10.05 13.14 24.48 33.88 34.85 51.38 4.05-0.31 8.11-0.63 11.99-0.63 3.73 0 7.62 0.32 11.35 0.63l0.01-2.25c-9.09-1.64-9.89-2.76-19.3-16.87l-22.36-33.4c14.91-2.41 26.58-10.2 26.58-26.57 0-16.2-13.95-24.97-35.34-24.97-11.51 0-20.75 1.29-29.17 1.29-8.75 0-16.38-0.63-22.38-1.29v2.28l13.63 4.53c3.56 1.14 4.04 2.28 4.04 17.51v58.68c0 12.48-0.65 13.12-5.18 14.58l-12.49 4.23zm-635.83-172.67h1.13l2.73 10.35c2.4 1.35 6.17 1.83 8.18 1.83 6.41 0 12.27-2.88 12.27-10.34 0-11.38-25.1-10.42-25.1-25.5 0-9.7 8.98-14.44 17.64-14.44 3.37 0 8.5 1.05 11.87 2.58l-0.48 10.98h-0.88l-3.13-8.91c-2.73-1.05-5.38-1.52-8.1-1.52-5.05 0-9.71 3.93-9.71 9.31 0 12.58 25.11 9.38 25.11 25.98 0 6.97-5.22 14.98-21.02 14.98-3.84 0-7.29-0.47-11.86-2.23zm56.21-25.12c0-7.52-0.23-8.08-2.01-8.65l-6.73-2.24v-1.11c6.67 0.31 12.76 0.63 18.85 0.63 7.62 0 15.15-0.32 22.21-0.63-0.07 1.98-0.24 4.88-0.24 6.08 0 1.2 0.17 3.94 0.24 5.77h-1.12l-2.08-6.01c-0.8-2.24-1.45-2.24-10.67-2.24-4.65 0-8.34 0.07-11.31 0.15-0.16 2.82-0.4 5.77-0.4 9.15v9.86h8.34c9.7 0 10.59-0.16 11.31-1.92l2.09-5.71h1.12c-0.08 3.06-0.16 6.1-0.16 9.07 0 3.29 0.08 6.35 0.16 9.71h-1.12l-2.09-6.1c-0.72-1.76-1.61-1.92-11.31-1.92h-8.34v10.9c0 3.69 0.24 7.39 0.4 10.75 3.77 0.09 7.55 0.31 11.15 0.31 8.58 0 9.78-0.07 10.58-1.04 0.97-1.2 1.85-3.77 3.29-8.49h1.13c-0.16 2.32-0.48 4.72-0.48 7.05l-0.01 6.1c-4.16-0.33-16.51-0.64-21.01-0.64-7.05 0-14.76 0.31-20.53 0.64v-1.12l6.18-2.09c2.25-0.72 2.56-1.05 2.56-7.22zm87 21.59c0-1.28-0.32-1.77-3.92-3.14l-4.81-1.84v-1.12c3.85 0.16 7.69 0.64 11.54 0.64 3.62 0 7.15-0.48 10.67-0.64v1.12l-5.05 2.42c-1.44 0.7-1.69 1.51-1.69 3.19v12.35c0 0.81 0.09 2.18 0.16 3.62-3.03 0.95-9.7 2.23-15.07 2.23-18.28 0-29.5-10.66-29.5-25.73 0-18.36 17.15-27.68 31.35-27.68 4.4 0 7.94 0.41 11.39 1.14-0.09 2.08-0.17 4.16-0.17 6.16 0 2.34 0.08 4.67 0.17 6.99h-1.13c-1.13-3.45-2.65-7.87-3.85-9.38-0.81-1.04-5.61-1.77-8.74-1.77-11.3 0-20.85 7.78-20.85 23.81 0 13.79 8.17 23.34 20.13 23.34 3.37 0 6.41-0.39 9.22-1.35 0.08-1.22 0.15-2.43 0.15-2.97zm84.68-32.48l-3.54 1.35c-2.08 0.89-3.2 1.62-3.29 3.29-0.15 4.49 0 11.07-0.15 25.34-0.17 15.55-7.78 21.33-19.73 21.33-11.63 0-19.72-5.04-19.72-17.31v-22.53c0-6.75-0.25-8.34-2.49-9.23l-5.77-2.24v-1.12c3.93 0.32 7.69 0.63 11.46 0.63 4.26 0 8.42-0.31 12.68-0.63v1.12l-3.7 1.35c-4.4 1.69-5.04 2.01-5.21 4.82-0.24 4.72-0.24 11.62-0.24 23.97 0 10.27 2.32 17.01 15.07 17.01 8.42 0 13.48-5.23 13.48-14.84 0-9.86-0.08-22.61-0.73-28.15-0.15-1.45-1.36-2.08-3.52-2.81l-4.42-1.35v-1.12c3.45 0.32 6.9 0.63 10.43 0.63 3.05 0 6.17-0.31 9.39-0.63zm32.05 2.24c2.41 0 4.81-0.07 7.38-0.07 7.55 0 12.43 3.04 12.43 10.1 0 8.81-6.9 10.02-14.35 10.02h-5.46zm74.04 46.42c-11.72 0-17.57-10.89-17.57-27.42 0-11.37 6.02-20.69 17.15-20.69 13.24 0 16.93 12.77 16.93 26.15 0 10.91-4.33 21.96-16.51 21.96zm43.79-12.65h1.12l2.73 10.35c2.41 1.35 6.18 1.81 8.18 1.83 6.42 0.06 12.27-2.88 12.27-10.35 0-11.37-25.1-10.42-25.1-25.49 0-9.71 8.98-14.45 17.65-14.45 3.36 0 8.49 1.06 11.85 2.59l-0.47 10.98h-0.88l-3.13-8.91c-2.73-1.05-5.38-1.53-8.1-1.53-5.06 0-9.7 3.94-9.7 9.32 0 12.58 25.09 9.38 25.09 25.98 0 6.97-5.2 14.98-21 14.98-3.85 0-7.3-0.48-11.88-2.23zm-23.78 62.06h6.73l24.46-16.13c0 0 9.49-6.12 4.19-11.31-5.2-5.06-14.07 5.14-14.07 5.14zm-344.41 59.07h11.51c18.15 0 33.07 5.83 33.07 23.49 0 19.14-16.05 22.7-31.77 22.7-4.06 0-7.95-0.32-12.32-0.49-0.33-5.02-0.49-9.87-0.49-14.91zm0-27.39c0-7.29 0.16-12 0.49-19.45 5.51-0.33 8.91-0.33 14.09-0.33 13.79 0 25.14 5.67 25.14 21.56 0 18.48-16.54 20.26-27.23 20.26h-12.49zm145.45 75.53c-23.66 0-35.49-22.05-35.49-55.43 0-23.02 12.15-41.82 34.69-41.82 26.74 0 34.19 25.77 34.19 52.84 0 22.04-8.74 44.41-33.39 44.41zm98.09-76.35c0-15.23-0.48-16.37-4.06-17.5l-13.6-4.54v-2.27c7.77 0.66 15.72 1.29 23.99 1.29 8.26 0 16.2-0.63 26.09-1.29v2.27l-14.76 4.54c-3.56 1.13-4.05 2.27-4.05 18.8v71.15h31.45c8.11 0 9.24-1.29 12.16-7.77l5.02-11.02h1.95l-1.29 26.08c-15.73-0.63-37.45-1.29-47.17-1.29-11.03 0-22.21 0.66-33.39 1.29v-2.25l12.47-4.23c4.55-1.46 5.19-2.1 5.19-14.57zm87.44 77.48l12.48-4.23c4.05-1.45 4.54-2.09 4.7-14.57 0.17-9.73 0.49-19.62 0.49-29.34 0-9.72-0.32-19.62-0.49-29.34-0.33-15.23-0.48-16.37-3.56-17.51l-13.62-4.53v-2.28c7.78 0.66 15.72 1.29 24.8 1.29 8.1 0 16.05-0.63 24.15-1.29v2.28l-13.61 4.53c-3.08 1.14-3.25 2.28-3.57 17.51-0.17 9.72-0.49 19.62-0.49 29.34 0 9.72 0.32 19.61 0.49 29.34 0.17 12.48 0.65 13.12 4.7 14.57l12.48 4.23v2.26c-7.61-0.64-17.01-1.3-24.15-1.3-8.1 0-17.51 0.66-24.8 1.3zm70.98-101.8c7.46 0.66 15.08 1.29 22.53 1.29 6.81 0 13.77-0.63 20.58-1.29v2.27l-5.67 1.61c-7.45 2.12-8.92 2.93-8.92 4.72 0 3.38 20.76 53.8 28.37 70.98 9.89-23.65 18.97-47.01 24.65-65 0.96-2.9 1.62-4.68 1.62-6.48 0-1.78-5.03-3.55-12.16-5.83v-2.27c6.15 0.66 12.32 1.29 18.47 1.29 5.03 0 9.89-0.63 14.75-1.29v2.27c-6.97 1.78-9.23 3.57-11.83 9.09-10.21 22.19-23.01 54.13-37.93 94.65h-3.72c-10.54-29.5-27.07-70.35-37.29-93.86-2.6-5.99-3.72-6.47-8.91-8.27l-4.54-1.61zm170.12 63.22h-36.47l18.64-42.96zm85.45-56.41c4.85 0 9.72-0.17 14.91-0.17 15.24 0 25.12 6.17 25.12 20.43 0 17.84-13.93 20.25-29.02 20.25h-11.01z"/> </g> </g> </g>
</svg>