<svg width="198" height="35" viewBox="0 0 198 35" fill="none" xmlns="http://www.w3.org/2000/svg">
<path d="M57.844 15.7105L52.3232 15.0506C50.1191 14.7964 49.047 14.0895 49.047 12.8892C49.047 11.3451 50.7919 10.5613 54.2347 10.5613C56.8274 10.5613 59.4715 11.1614 62.092 12.3489C62.1668 12.383 62.2522 12.3852 62.3291 12.3553C62.406 12.3254 62.4658 12.2634 62.4978 12.1887L63.7322 9.1645C63.7621 9.09189 63.7621 9.00646 63.7322 8.93384C63.7002 8.86123 63.6404 8.80143 63.5657 8.77153C60.4795 7.5264 57.3785 6.89209 54.3457 6.89209C51.313 6.89209 48.9744 7.42175 47.3598 8.46398C45.696 9.54253 44.8524 11.108 44.8524 13.1199C44.8524 14.7857 45.4333 16.1547 46.5845 17.1906C47.7122 18.2114 49.3503 18.85 51.4497 19.0871L56.9022 19.747C59.2344 20.0353 60.3685 20.7914 60.3685 22.0536C60.3685 23.7216 58.6983 24.5332 55.2598 24.5332C52.2015 24.5332 49.126 23.8028 46.1189 22.3612C46.0442 22.3248 45.9566 22.3206 45.8797 22.3526C45.8007 22.3825 45.7388 22.4423 45.7089 22.5213L44.421 25.7142C44.3612 25.8659 44.4296 26.0367 44.5769 26.1029C47.8019 27.5638 51.3514 28.307 55.1274 28.307C61.3872 28.307 64.5609 26.1585 64.5609 21.9212C64.5609 18.346 62.3034 16.2572 57.8505 15.7126" fill="white"/>
<path d="M86.6399 15.708H76.2689C76.1023 15.708 75.9656 15.8447 75.9656 16.0113V19.059C75.9656 19.2255 76.1023 19.3601 76.2689 19.3601H86.6399C86.8065 19.3601 86.9432 19.2255 86.9432 19.059V16.0113C86.9432 15.8447 86.8087 15.708 86.6399 15.708Z" fill="white"/>
<path d="M86.6399 7.28516H69.0672C68.9006 7.28516 68.7639 7.42184 68.7639 7.58843V27.6173C68.7639 27.7839 68.9006 27.9184 69.0672 27.9184H86.6399C86.8065 27.9184 86.9432 27.7839 86.9432 27.6173V24.4842C86.9432 24.3176 86.8087 24.183 86.6399 24.183H72.9734V11.0376H86.6399C86.8065 11.0376 86.9432 10.9031 86.9432 10.7344V7.59057C86.9432 7.42398 86.8087 7.28729 86.6399 7.28729" fill="white"/>
<path d="M111.237 7.28516H107.747C107.581 7.28516 107.444 7.42184 107.444 7.58843V21.2806L95.2277 7.38767C95.1701 7.32147 95.0868 7.28516 95.0013 7.28516H91.4283C91.2617 7.28516 91.125 7.42184 91.125 7.58843V27.6173C91.125 27.7839 91.2617 27.9184 91.4283 27.9184H94.9159C95.0825 27.9184 95.2192 27.7839 95.2192 27.6173V13.3762L107.871 27.8159C107.929 27.8821 108.012 27.9184 108.1 27.9184H111.237C111.404 27.9184 111.54 27.7839 111.54 27.6173V7.58843C111.54 7.42184 111.406 7.28516 111.237 7.28516Z" fill="white"/>
<path d="M135.433 7.28516H115.932C115.765 7.28516 115.628 7.42184 115.628 7.58843V10.7813C115.628 10.9479 115.763 11.0846 115.932 11.0846H123.582V27.6173C123.582 27.7839 123.716 27.9184 123.883 27.9184H127.482C127.648 27.9184 127.783 27.7839 127.783 27.6173V11.0846H135.433C135.6 11.0846 135.736 10.9479 135.736 10.7813V7.58843C135.736 7.42184 135.602 7.28516 135.433 7.28516Z" fill="white"/>
<path d="M154.876 19.702C156.352 19.3666 157.54 18.7088 158.415 17.7435C159.381 16.6692 159.872 15.3088 159.872 13.7006C159.872 11.7378 159.156 10.1574 157.74 9.00197C156.341 7.8615 154.432 7.28271 152.066 7.28271H140.281C140.114 7.28271 139.978 7.41727 139.978 7.58599V27.6148C139.978 27.7814 140.114 27.916 140.281 27.916H143.886C144.053 27.916 144.187 27.7814 144.187 27.6148V10.9925H152.495C153.471 10.9925 154.255 11.2488 154.823 11.7571C155.393 12.2568 155.669 12.9061 155.669 13.7497C155.669 14.5933 155.389 15.2319 154.817 15.7124C154.229 16.1994 153.411 16.4471 152.386 16.4471H147.457C147.29 16.4471 147.154 16.5817 147.154 16.7504V19.8942C147.154 20.0608 147.29 20.1953 147.457 20.1953H150.122L155.782 27.7964C155.84 27.8732 155.929 27.9181 156.025 27.9181H160.5C160.613 27.9181 160.72 27.854 160.771 27.7515C160.822 27.649 160.809 27.5251 160.741 27.4333L154.876 19.702Z" fill="white"/>
<path d="M168.206 7.28516H164.607C164.44 7.28516 164.304 7.42184 164.304 7.58843V27.6173C164.304 27.7839 164.438 27.9184 164.607 27.9184H168.206C168.372 27.9184 168.509 27.7839 168.509 27.6173V7.58843C168.509 7.42184 168.374 7.28516 168.206 7.28516Z" fill="white"/>
<path d="M197.018 27.4825L187.252 7.45583C187.201 7.35118 187.096 7.28711 186.981 7.28711H182.724C182.609 7.28711 182.504 7.35332 182.453 7.45583L172.686 27.4825C172.639 27.5765 172.646 27.6876 172.701 27.7751C172.757 27.8627 172.853 27.9182 172.957 27.9182H176.761C176.879 27.9182 176.985 27.8499 177.035 27.7452L184.781 11.392L188.73 19.6145H183.993C183.877 19.6145 183.771 19.6829 183.719 19.7875L182.293 22.8117C182.248 22.9057 182.254 23.0146 182.31 23.1022C182.365 23.1897 182.461 23.2431 182.566 23.2431H190.342L192.546 27.7474C192.598 27.852 192.702 27.9161 192.818 27.9161H196.749C196.854 27.9161 196.95 27.8627 197.004 27.773C197.059 27.6854 197.065 27.5744 197.018 27.4804" fill="white"/>
<mask id="mask0_1496_25766" style="mask-type:luminance" maskUnits="userSpaceOnUse" x="0" y="0" width="31" height="20">
<path d="M0.00219727 17.4681C0.00219727 18.5723 0.899202 19.465 2.00124 19.465C3.10327 19.465 4.00241 18.5659 4.00241 17.4596C4.00241 10.0379 10.0401 4.00021 17.4618 4.00021C21.0604 4.00021 24.4392 5.40125 26.9764 7.94276C27.756 8.72657 29.0203 8.72657 29.8041 7.94703C30.5858 7.16536 30.5879 5.89887 29.8084 5.1172C26.5151 1.81537 22.1326 0 17.4639 0C7.83604 0 0.00433345 7.8317 0.00433345 17.466" fill="white"/>
</mask>
<g mask="url(#mask0_1496_25766)">
<path d="M30.5901 0.00244141H0.00219727V19.4653H30.5901V0.00244141Z" fill="url(#paint0_linear_1496_25766)"/>
</g>
<mask id="mask1_1496_25766" style="mask-type:luminance" maskUnits="userSpaceOnUse" x="0" y="7" width="25" height="13">
<path d="M7.93636 15.467L2.00331 15.4628H1.99904C0.894869 15.4628 0 16.3555 0 17.4618C0 18.5638 0.894869 19.4608 1.9969 19.4608L9.72823 19.4694C10.2558 19.4694 10.7662 19.2537 11.1421 18.8799C11.5158 18.504 11.7273 17.9936 11.7273 17.4618C11.7273 14.3031 14.2987 11.7338 17.4574 11.7338C18.9866 11.7338 20.4239 12.3297 21.511 13.4146C22.2927 14.1963 23.5571 14.1963 24.3387 13.4146C25.1204 12.6329 25.1204 11.3665 24.3387 10.5848C22.4999 8.74592 20.0545 7.73145 17.4574 7.73145C12.778 7.73145 8.85899 11.0546 7.93422 15.467" fill="white"/>
</mask>
<g mask="url(#mask1_1496_25766)">
<path d="M25.1247 7.729H0V19.467H25.1247V7.729Z" fill="url(#paint1_linear_1496_25766)"/>
</g>
<mask id="mask2_1496_25766" style="mask-type:luminance" maskUnits="userSpaceOnUse" x="4" y="15" width="31" height="20">
<path d="M25.1909 15.467C24.0867 15.467 23.1918 16.3618 23.1897 17.4639C23.1854 20.6205 20.6162 23.1898 17.4617 23.1898C15.9282 23.1898 14.4866 22.5939 13.4081 21.5154C12.6264 20.7337 11.3621 20.7337 10.5783 21.5154C9.79658 22.297 9.79658 23.5657 10.5783 24.3452C12.415 26.1819 14.8604 27.1921 17.4617 27.1921C22.1347 27.1921 26.0537 23.8732 26.9828 19.4693H30.7715C29.7976 25.9448 24.1978 30.9254 17.4617 30.9254C13.8694 30.9254 10.4886 29.5265 7.9449 26.9807C7.16536 26.2011 5.89674 26.2011 5.11507 26.9807C4.33339 27.7624 4.33339 29.0288 5.11507 29.8105C8.41476 33.1102 12.7973 34.9277 17.4596 34.9277C27.0789 34.9277 34.9127 27.0939 34.9191 17.4682C34.9191 16.9364 34.7098 16.4259 34.3339 16.0522C33.958 15.6763 33.4497 15.4648 32.9201 15.4648H25.1909V15.467Z" fill="white"/>
</mask>
<g mask="url(#mask2_1496_25766)">
<path d="M34.9233 15.4673H4.33545V34.928H34.9233V15.4673Z" fill="url(#paint2_linear_1496_25766)"/>
</g>
<g style="mix-blend-mode:multiply">
<mask id="mask3_1496_25766" style="mask-type:luminance" maskUnits="userSpaceOnUse" x="20" y="9" width="6" height="6">
<path d="M25.3446 9.48682H20.5115V14.4139H25.3446V9.48682Z" fill="white"/>
</mask>
<g mask="url(#mask3_1496_25766)">
<path d="M22.9294 14C22.4019 14 21.885 13.7864 21.5155 13.4127C21.4216 13.3187 21.3361 13.2162 21.2657 13.1094C21.1952 13.0005 21.1333 12.883 21.0841 12.7634C21.0307 12.6438 20.9966 12.5199 20.9688 12.3896C20.9432 12.2615 20.9282 12.1269 20.9282 11.9988C20.9282 11.8707 20.941 11.7382 20.9688 11.608C20.9966 11.4777 21.0307 11.3538 21.0841 11.2342C21.1333 11.1146 21.1952 10.9971 21.2657 10.8882C21.3383 10.7814 21.4216 10.6789 21.5155 10.585C21.9769 10.1194 22.671 9.90579 23.3202 10.0382C23.4484 10.0638 23.5723 10.1001 23.694 10.1493C23.8136 10.2027 23.9332 10.2646 24.04 10.3351C24.151 10.4055 24.2493 10.491 24.3432 10.5828C24.4372 10.6768 24.5205 10.7793 24.591 10.8861C24.6636 10.995 24.7234 11.1125 24.7725 11.2321C24.8259 11.3517 24.8622 11.4756 24.89 11.6058C24.9178 11.734 24.9306 11.8685 24.9306 11.9967C24.9306 12.1248 24.9178 12.2594 24.89 12.3875C24.8644 12.5178 24.8259 12.6417 24.7725 12.7613C24.7255 12.8809 24.6636 12.9983 24.591 13.1072C24.5184 13.214 24.4351 13.3165 24.3432 13.4105C24.2493 13.5045 24.151 13.5878 24.04 13.6583C23.9332 13.7309 23.8136 13.7907 23.694 13.8419C23.5744 13.8953 23.4484 13.9295 23.3202 13.9573C23.1921 13.9829 23.0618 13.9978 22.9294 13.9978" fill="#F2AD1C"/>
</g>
</g>
<g style="mix-blend-mode:multiply">
<mask id="mask4_1496_25766" style="mask-type:luminance" maskUnits="userSpaceOnUse" x="9" y="20" width="6" height="6">
<path d="M14.4096 20.4985H9.57642V25.3466H14.4096V20.4985Z" fill="white"/>
</mask>
<g mask="url(#mask4_1496_25766)">
<path d="M11.9899 24.9303C11.8617 24.9303 11.7315 24.9175 11.6033 24.8897C11.4752 24.8641 11.3492 24.8235 11.2253 24.7744C11.1057 24.7253 10.9904 24.6633 10.8836 24.5907C10.7725 24.516 10.6679 24.4348 10.576 24.343C10.4885 24.249 10.4052 24.1486 10.3283 24.0397C10.2557 23.9308 10.1959 23.8133 10.1468 23.6937C10.0976 23.5741 10.0571 23.446 10.0293 23.32C10.0079 23.1918 9.99512 23.0573 9.99512 22.9291C9.99512 22.801 10.0079 22.6664 10.0293 22.5383C10.0571 22.408 10.0955 22.2841 10.1468 22.1645C10.1937 22.0407 10.2557 21.9253 10.3283 21.8186C10.4052 21.7075 10.4885 21.605 10.576 21.511C10.67 21.4213 10.7725 21.3359 10.8836 21.2654C10.9904 21.1885 11.1057 21.1266 11.2253 21.0796C11.3492 21.0305 11.4752 20.9899 11.6033 20.9621C11.8617 20.913 12.1287 20.913 12.3807 20.9621C12.5089 20.9878 12.637 21.0283 12.7566 21.0796C12.8783 21.1287 12.9937 21.1907 13.1005 21.2654C13.2115 21.3359 13.314 21.4213 13.408 21.511C13.4956 21.605 13.581 21.7054 13.6558 21.8186C13.7284 21.9253 13.7882 22.0407 13.8394 22.1645C13.8864 22.2841 13.927 22.408 13.9548 22.5383C13.9825 22.6664 13.9953 22.7967 13.9953 22.9291C13.9953 23.0616 13.9825 23.1897 13.9548 23.32C13.9291 23.4438 13.8885 23.5741 13.8394 23.6937C13.7903 23.8133 13.7284 23.9308 13.6558 24.0397C13.581 24.1486 13.4956 24.249 13.408 24.343C13.314 24.437 13.2137 24.5203 13.1005 24.5907C12.9937 24.6633 12.8783 24.7231 12.7566 24.7744C12.637 24.8278 12.5089 24.862 12.3807 24.8897C12.2504 24.9154 12.1223 24.9303 11.9899 24.9303Z" fill="#F2AD1C"/>
</g>
</g>
<g style="mix-blend-mode:multiply">
<mask id="mask5_1496_25766" style="mask-type:luminance" maskUnits="userSpaceOnUse" x="4" y="25" width="5" height="6">
<path d="M8.94643 25.8872H4.11328V30.8143H8.94643V25.8872Z" fill="white"/>
</mask>
<g mask="url(#mask5_1496_25766)">
<path d="M6.53102 30.3982C6.40288 30.3982 6.26833 30.3854 6.14018 30.3577C6.01631 30.332 5.88603 30.2957 5.76643 30.2466C5.64683 30.1932 5.5315 30.1313 5.42044 30.0608C5.31366 29.9903 5.21114 29.9049 5.11931 29.8131C4.74555 29.4393 4.53198 28.9225 4.53198 28.3992C4.53198 27.876 4.74555 27.3591 5.11931 26.9854C5.21328 26.8914 5.31366 26.8081 5.42044 26.7376C5.5315 26.6607 5.64683 26.6052 5.76643 26.5518C5.88603 26.5027 6.01631 26.4621 6.14018 26.4407C6.78944 26.3083 7.48355 26.5198 7.94487 26.9875C8.31862 27.3612 8.5322 27.8781 8.5322 28.4013C8.5322 28.9246 8.31862 29.4436 7.94487 29.8152C7.57753 30.1889 7.06068 30.4025 6.53102 30.4025" fill="#F2AD1C"/>
</g>
</g>
<g style="mix-blend-mode:multiply">
<mask id="mask6_1496_25766" style="mask-type:luminance" maskUnits="userSpaceOnUse" x="25" y="4" width="6" height="5">
<path d="M30.808 4.02588H25.9749V8.953H30.808V4.02588Z" fill="white"/>
</mask>
<g mask="url(#mask6_1496_25766)">
<path d="M28.3923 8.5366C27.8648 8.5366 27.348 8.32302 26.9785 7.94927C26.8845 7.8553 26.8012 7.75279 26.7286 7.646C26.6539 7.53708 26.5919 7.41961 26.5428 7.30001C26.4937 7.18041 26.4552 7.05227 26.4318 6.92626C26.4061 6.79812 26.3933 6.66357 26.3933 6.53542C26.3933 6.0079 26.6069 5.49319 26.9806 5.12157C27.442 4.65598 28.1318 4.44241 28.7853 4.57483C28.9092 4.59618 29.0395 4.63676 29.1591 4.68588C29.2787 4.73928 29.394 4.80121 29.5008 4.87169C29.6118 4.94217 29.7165 5.0276 29.8083 5.11944C30.1821 5.49319 30.3957 6.00363 30.3957 6.53329C30.3957 7.06295 30.1821 7.57552 29.8083 7.94714C29.7144 8.04111 29.6118 8.1244 29.5008 8.19488C29.394 8.2675 29.2787 8.3273 29.1591 8.37856C29.0395 8.43195 28.9113 8.46612 28.7853 8.49388C28.655 8.51951 28.5226 8.53446 28.3945 8.53446" fill="#F2AD1C"/>
</g>
</g>
<defs>
<linearGradient id="paint0_linear_1496_25766" x1="0.59516" y1="9.2861" x2="31.2143" y2="9.2861" gradientUnits="userSpaceOnUse">
<stop stop-color="#E77238"/>
<stop offset="1" stop-color="#F2AE38"/>
</linearGradient>
<linearGradient id="paint1_linear_1496_25766" x1="-0.389642" y1="13.8796" x2="24.7234" y2="13.8796" gradientUnits="userSpaceOnUse">
<stop stop-color="#E77238"/>
<stop offset="1" stop-color="#F2AE38"/>
</linearGradient>
<linearGradient id="paint2_linear_1496_25766" x1="34.206" y1="25.7128" x2="3.58684" y2="25.7128" gradientUnits="userSpaceOnUse">
<stop stop-color="#E77238"/>
<stop offset="1" stop-color="#F2AE38"/>
</linearGradient>
</defs>
</svg>
